 <svg  version="1.0" xmlns="http://www.w3.org/2000/svg"  width="900.000000pt" height="900.000000pt" viewBox="0 0 900.000000 900.000000"  preserveAspectRatio="xMidYMid meet">  <g transform="translate(0.000000,900.000000) scale(0.100000,-0.100000)" fill="#ffffff" stroke="none"> <path d="M1763 8991 c4 -14 -82 -91 -101 -91 -23 0 -52 -30 -52 -54 0 -25 -90 -126 -112 -126 -29 0 -68 -30 -68 -52 0 -25 -22 -51 -141 -164 -35 -34 -79 -69 -96 -78 -20 -10 -33 -24 -33 -36 0 -25 -114 -140 -148 -149 -19 -5 -28 -15 -30 -34 -2 -17 -14 -33 -32 -44 -16 -9 -34 -27 -41 -39 -7 -13 -27 -34 -46 -46 -18 -13 -36 -31 -39 -40 -3 -11 -15 -18 -31 -18 -15 0 -35 -12 -51 -31 -15 -17 -42 -45 -59 -62 -19 -17 -33 -40 -33 -54 0 -18 -6 -23 -24 -23 -14 0 -34 -12 -48 -28 -12 -15 -37 -37 -55 -50 -17 -12 -35 -32 -39 -45 -12 -37 -87 -117 -111 -117 -23 0 -113 -92 -113 -116 0 -8 -25 -30 -56 -50 -30 -19 -57 -43 -60 -52 -11 -34 -22 -47 -43 -50 -12 -2 -28 -16 -36 -31 -8 -16 -25 -36 -39 -45 -22 -14 -26 -24 -26 -66 0 -28 4 -50 10 -50 13 0 50 37 50 50 0 5 18 21 39 36 21 14 41 34 44 45 3 10 16 23 29 28 12 5 32 23 43 41 11 17 32 38 47 46 15 7 29 22 33 33 3 10 23 31 44 46 22 14 41 35 44 46 3 10 13 22 24 25 19 7 133 120 133 132 0 4 18 18 40 32 22 14 40 33 40 42 0 10 10 22 22 29 26 13 117 105 133 134 5 11 26 30 45 43 19 13 40 32 45 43 6 11 28 31 48 45 20 13 37 31 37 39 0 8 13 21 29 30 16 8 32 23 36 34 3 10 23 31 45 46 22 15 42 35 45 45 3 10 23 30 45 45 22 15 42 36 45 46 3 10 14 20 24 24 9 3 31 23 47 45 16 22 37 42 47 46 9 3 24 18 31 33 8 15 30 36 50 46 19 10 37 29 40 41 4 13 15 25 26 29 10 3 33 24 50 45 17 21 40 42 50 45 11 4 23 17 26 29 3 13 23 34 45 47 21 13 42 33 45 44 3 11 18 28 35 37 16 10 37 31 47 48 9 16 26 33 37 36 25 8 35 23 35 52 0 19 -5 22 -35 22 -19 0 -34 -4 -32 -9z"/> <path d="M1990 8986 c0 -20 -19 -30 -52 -28 -25 2 -28 -1 -28 -31 0 -41 -15 -57 -53 -57 -26 0 -28 -2 -22 -28 8 -38 -14 -56 -54 -47 -30 6 -31 5 -25 -22 7 -36 -16 -58 -57 -55 -26 2 -29 -1 -29 -26 0 -42 -22 -66 -53 -60 -28 5 -41 -11 -30 -38 8 -21 -21 -44 -54 -44 -19 0 -23 -5 -23 -29 0 -31 -16 -43 -60 -45 -20 -1 -24 -6 -22 -23 5 -36 -15 -61 -51 -65 -28 -3 -32 -6 -29 -30 3 -29 -20 -48 -57 -48 -16 0 -21 -6 -21 -29 0 -36 -21 -54 -54 -45 -24 6 -26 4 -26 -28 0 -43 -15 -58 -58 -58 -32 0 -34 -2 -28 -26 9 -33 -9 -54 -45 -54 -25 0 -29 -4 -29 -28 0 -35 -31 -67 -47 -51 -17 17 -33 2 -33 -30 0 -36 -17 -51 -57 -51 -34 0 -43 -16 -21 -38 20 -20 -11 -44 -53 -40 -37 3 -37 3 -32 -29 8 -46 -11 -65 -53 -57 -33 6 -34 5 -29 -22 8 -41 -7 -58 -49 -56 -37 1 -47 -13 -24 -36 9 -9 7 -16 -7 -32 -15 -17 -26 -20 -54 -15 -33 6 -34 6 -28 -23 8 -39 -17 -63 -56 -55 -27 5 -28 4 -21 -23 10 -40 29 -56 61 -52 21 2 29 9 31 28 5 34 20 50 48 50 20 0 24 5 24 29 0 36 24 56 62 52 26 -2 28 -1 22 23 -8 35 11 56 52 56 32 0 34 2 34 34 0 39 11 49 51 48 24 -1 29 3 29 23 0 41 11 55 41 55 21 0 29 5 29 18 0 29 29 62 56 62 15 0 27 7 30 18 14 42 29 63 51 68 15 4 29 20 38 40 11 26 20 34 39 34 18 0 26 5 26 18 0 29 28 60 58 64 20 2 28 9 30 28 5 34 30 60 58 60 17 0 24 7 29 28 4 20 17 34 40 45 21 10 35 24 37 39 2 16 13 26 38 34 24 8 36 19 41 38 11 39 28 56 55 56 19 0 26 7 31 31 4 22 14 34 33 40 15 6 33 23 41 41 10 23 24 35 47 40 25 7 32 14 32 33 0 30 25 55 56 55 19 0 26 6 30 29 4 17 17 34 31 42 14 8 37 31 50 51 16 26 31 38 46 38 17 0 25 8 32 33 8 24 18 35 45 43 19 6 36 19 38 28 3 13 -6 16 -47 16 -38 0 -51 -4 -51 -14z"/> <path d="M2290 8985 c0 -8 -14 -24 -31 -34 -17 -11 -39 -33 -49 -49 -10 -17 -27 -33 -37 -36 -10 -3 -28 -22 -41 -41 -12 -20 -33 -40 -46 -45 -14 -5 -27 -18 -30 -28 -4 -11 -24 -32 -46 -47 -22 -15 -40 -34 -40 -42 0 -7 -15 -23 -34 -34 -19 -11 -44 -36 -55 -55 -11 -19 -27 -34 -35 -34 -9 0 -23 -14 -31 -30 -9 -17 -31 -38 -50 -47 -20 -10 -35 -25 -37 -37 -2 -12 -17 -27 -36 -36 -18 -9 -40 -31 -50 -50 -10 -21 -26 -36 -38 -38 -12 -2 -27 -16 -35 -35 -8 -18 -27 -38 -42 -45 -15 -8 -32 -25 -37 -38 -5 -13 -20 -29 -32 -35 -13 -5 -36 -28 -51 -50 -16 -21 -36 -39 -45 -39 -10 0 -26 -16 -37 -36 -10 -19 -31 -42 -46 -50 -15 -7 -31 -23 -34 -34 -4 -12 -18 -25 -31 -30 -14 -6 -34 -26 -45 -45 -12 -19 -25 -35 -30 -35 -6 0 -31 -22 -56 -50 -25 -27 -52 -50 -58 -50 -7 0 -15 -10 -19 -22 -3 -13 -19 -31 -36 -40 -17 -10 -38 -31 -48 -48 -9 -16 -25 -33 -35 -36 -10 -3 -29 -23 -43 -44 -17 -25 -35 -40 -55 -44 -22 -4 -29 -11 -29 -29 0 -17 -10 -28 -36 -40 -22 -11 -39 -28 -46 -47 -6 -19 -19 -32 -34 -36 -15 -4 -32 -21 -44 -44 -12 -23 -29 -40 -44 -44 -16 -4 -28 -16 -32 -30 -3 -15 -20 -31 -40 -41 -20 -9 -40 -28 -45 -43 -13 -33 -26 -42 -61 -42 -24 0 -28 -4 -28 -30 0 -23 -7 -35 -28 -47 -15 -9 -36 -30 -48 -47 -16 -24 -26 -30 -50 -29 -16 2 -36 0 -44 -3 -13 -5 -12 -8 3 -19 25 -18 14 -53 -18 -61 -14 -3 -34 -21 -46 -40 -11 -19 -32 -37 -45 -40 -16 -4 -30 -19 -39 -40 -8 -19 -19 -34 -24 -34 -6 0 -11 -13 -11 -30 0 -16 5 -30 11 -30 6 0 118 108 250 240 132 132 243 240 247 240 4 1 52 49 107 107 55 58 127 131 159 162 33 31 105 103 160 160 56 57 129 131 163 165 89 87 265 263 283 282 8 8 43 42 77 75 34 33 67 68 73 79 6 11 17 20 24 20 8 0 26 15 40 33 14 17 30 35 34 39 4 5 37 38 75 75 37 38 70 71 75 76 4 4 23 23 42 41 19 19 41 40 48 48 6 7 40 41 75 75 34 35 67 68 73 75 6 7 26 27 45 45 19 17 39 36 44 42 6 5 58 57 117 114 114 111 141 157 94 157 -17 0 -26 -5 -26 -15z"/> <path d="M4610 8989 c0 -7 -55 -66 -122 -133 -68 -67 -159 -160 -203 -207 -44 -46 -112 -114 -150 -150 -39 -36 -203 -200 -366 -365 -163 -164 -312 -313 -330 -330 -19 -18 -51 -49 -71 -70 -20 -22 -45 -46 -55 -55 -10 -9 -29 -30 -43 -48 -14 -17 -32 -34 -41 -36 -9 -3 -30 -25 -47 -49 -17 -24 -55 -66 -83 -92 -87 -83 -171 -167 -249 -254 -41 -45 -87 -88 -102 -96 -15 -8 -29 -23 -33 -34 -3 -11 -52 -60 -108 -110 -135 -120 -125 -110 -182 -176 -90 -105 -288 -303 -316 -314 -15 -6 -35 -27 -45 -45 -10 -19 -30 -39 -44 -43 -14 -5 -32 -22 -40 -38 -23 -44 -351 -374 -388 -390 -19 -8 -37 -26 -43 -42 -6 -14 -36 -54 -67 -88 -31 -33 -73 -78 -93 -100 -19 -21 -57 -57 -84 -79 -27 -22 -76 -66 -109 -97 -33 -32 -63 -58 -67 -58 -14 0 -89 -78 -89 -94 0 -14 -231 -265 -253 -275 -10 -4 -206 -201 -397 -398 -74 -77 -151 -148 -170 -158 -37 -19 -185 -164 -207 -204 -7 -13 -13 -42 -13 -65 l0 -41 246 250 c383 389 518 525 581 587 62 61 68 67 105 102 12 12 82 84 153 160 167 179 201 213 260 261 27 22 63 56 79 75 68 77 228 239 1071 1084 484 486 908 912 942 947 35 35 70 71 79 79 9 8 130 130 269 270 139 140 261 263 271 273 11 9 42 44 69 76 28 33 54 60 59 60 10 1 137 129 238 239 31 34 61 62 66 62 5 0 21 16 36 34 14 19 53 63 86 97 68 70 74 89 30 89 -16 0 -30 -5 -30 -11z"/> <path d="M4755 8970 c-4 -20 -13 -30 -25 -30 -10 0 -22 -9 -25 -20 -3 -11 -13 -20 -21 -20 -8 0 -20 -11 -26 -25 -6 -14 -17 -25 -25 -25 -7 0 -19 -11 -25 -25 -6 -14 -19 -25 -30 -25 -11 0 -18 -7 -18 -20 0 -13 -10 -24 -25 -30 -15 -6 -25 -17 -25 -30 0 -13 -7 -20 -20 -20 -11 0 -24 -8 -27 -17 -8 -21 -57 -69 -85 -84 -13 -7 -17 -16 -13 -30 5 -15 2 -19 -20 -19 -17 0 -29 -8 -36 -24 -6 -13 -20 -27 -30 -29 -11 -3 -19 -12 -19 -20 0 -9 -9 -19 -20 -22 -11 -3 -20 -11 -20 -16 0 -6 -21 -29 -46 -52 -26 -23 -50 -52 -55 -64 -5 -13 -17 -23 -28 -23 -12 0 -21 -9 -25 -25 -4 -14 -13 -25 -21 -25 -8 0 -19 -9 -25 -19 -5 -11 -19 -23 -30 -26 -11 -3 -20 -15 -20 -25 0 -10 -10 -20 -24 -24 -13 -3 -26 -15 -29 -26 -3 -12 -13 -20 -26 -20 -14 0 -21 -6 -21 -20 0 -13 -10 -24 -25 -30 -15 -6 -25 -17 -25 -29 0 -11 -9 -23 -20 -26 -11 -3 -25 -15 -30 -26 -6 -10 -17 -19 -25 -19 -8 0 -15 -9 -15 -20 0 -12 -10 -24 -24 -30 -13 -5 -27 -18 -31 -29 -3 -12 -12 -21 -20 -21 -7 0 -20 -11 -29 -25 -9 -14 -23 -25 -31 -25 -7 0 -15 -10 -17 -22 -2 -15 -11 -24 -25 -26 -15 -2 -23 -10 -23 -23 0 -11 -8 -23 -17 -26 -26 -10 -70 -56 -75 -79 -2 -11 -13 -20 -26 -22 -13 -2 -27 -14 -32 -26 -5 -13 -16 -26 -24 -29 -9 -4 -16 -13 -16 -21 0 -8 -10 -16 -22 -18 -14 -2 -24 -12 -28 -28 -3 -14 -14 -27 -25 -29 -22 -4 -75 -54 -75 -70 0 -7 -11 -16 -25 -21 -14 -5 -25 -16 -25 -24 0 -9 -9 -20 -20 -26 -29 -15 -68 -56 -75 -79 -3 -11 -16 -21 -28 -23 -14 -2 -23 -11 -25 -25 -2 -13 -10 -23 -18 -23 -8 0 -17 -7 -21 -16 -3 -8 -16 -20 -29 -25 -15 -5 -24 -17 -24 -29 0 -11 -8 -23 -17 -27 -26 -9 -83 -70 -83 -87 0 -10 -8 -15 -22 -13 -17 1 -24 -4 -26 -21 -2 -13 -13 -27 -25 -32 -25 -10 -60 -47 -70 -72 -3 -9 -16 -18 -29 -20 -15 -2 -24 -11 -26 -25 -2 -13 -7 -23 -12 -23 -13 0 -75 -62 -83 -82 -3 -9 -16 -18 -29 -20 -15 -2 -24 -11 -26 -24 -2 -12 -12 -24 -23 -27 -10 -3 -19 -12 -19 -20 0 -8 -11 -18 -24 -21 -15 -4 -26 -14 -28 -29 -2 -14 -11 -23 -25 -25 -13 -2 -23 -7 -23 -12 0 -5 -11 -21 -25 -36 -14 -15 -25 -30 -25 -35 0 -4 -10 -9 -22 -11 -15 -2 -24 -11 -26 -26 -2 -13 -14 -27 -28 -32 -13 -5 -24 -16 -24 -25 0 -8 -7 -15 -15 -15 -9 0 -20 -11 -25 -24 -5 -14 -19 -26 -32 -28 -15 -2 -24 -11 -26 -25 -2 -12 -12 -25 -23 -28 -10 -4 -19 -13 -19 -20 0 -8 -11 -17 -25 -21 -18 -4 -25 -13 -25 -29 0 -18 -6 -24 -27 -27 -17 -2 -29 -10 -31 -21 -4 -17 -50 -70 -64 -73 -5 -1 -12 -2 -18 -3 -5 0 -10 -10 -10 -21 0 -13 -9 -22 -25 -26 -16 -4 -25 -13 -25 -26 0 -11 -8 -22 -19 -25 -11 -3 -21 -13 -24 -23 -3 -10 -15 -20 -28 -22 -16 -2 -25 -11 -27 -27 -2 -13 -12 -26 -23 -28 -10 -3 -21 -14 -24 -24 -4 -10 -13 -19 -21 -19 -8 0 -19 -11 -24 -24 -5 -14 -19 -26 -32 -28 -17 -2 -22 -9 -21 -26 2 -16 -2 -22 -17 -22 -13 0 -22 -9 -26 -25 -4 -18 -13 -25 -30 -25 -19 0 -24 -5 -24 -24 0 -18 -6 -25 -22 -28 -15 -2 -24 -11 -26 -25 -2 -13 -10 -23 -17 -23 -8 0 -20 -8 -27 -19 -7 -10 -22 -20 -33 -22 -10 -2 -22 -15 -25 -29 -4 -16 -14 -26 -28 -28 -16 -2 -22 -10 -22 -28 0 -17 -6 -24 -18 -24 -11 0 -24 -11 -30 -25 -6 -14 -15 -25 -19 -24 -22 4 -30 -3 -29 -23 1 -17 -5 -24 -22 -26 -18 -3 -22 -9 -20 -30 3 -23 0 -27 -20 -24 -16 2 -25 -4 -32 -22 -6 -16 -17 -26 -30 -26 -13 0 -20 -7 -20 -19 0 -10 -9 -21 -21 -24 -11 -3 -23 -15 -26 -26 -3 -12 -14 -21 -24 -21 -11 0 -21 -9 -25 -24 -3 -15 -15 -27 -30 -30 -15 -4 -24 -14 -24 -26 0 -10 -9 -21 -19 -25 -11 -3 -23 -15 -26 -26 -4 -10 -15 -19 -26 -19 -12 0 -19 -7 -19 -20 0 -13 -10 -24 -25 -30 -15 -6 -25 -17 -25 -30 0 -13 -7 -20 -20 -20 -13 0 -24 -10 -30 -25 -6 -15 -17 -25 -30 -25 -13 0 -20 -7 -20 -20 0 -13 -10 -24 -25 -30 -15 -6 -25 -17 -25 -30 0 -14 -7 -20 -21 -20 -13 0 -23 -8 -26 -20 -3 -11 -16 -23 -30 -26 -16 -4 -22 -11 -18 -23 3 -12 -4 -20 -25 -28 -21 -8 -30 -18 -30 -33 0 -17 -4 -20 -20 -15 -15 5 -21 0 -26 -19 -3 -14 -15 -28 -25 -31 -10 -4 -19 -15 -19 -25 0 -10 -10 -20 -24 -24 -13 -3 -26 -15 -29 -26 -3 -12 -13 -20 -26 -20 -14 0 -21 -6 -21 -20 0 -13 -10 -24 -25 -30 -15 -6 -25 -17 -25 -29 0 -12 -9 -21 -24 -25 -13 -3 -26 -15 -29 -26 -3 -11 -12 -20 -20 -20 -9 0 -17 -10 -19 -22 -2 -14 -12 -24 -28 -28 -18 -5 -24 -12 -23 -28 2 -12 -2 -22 -7 -22 -6 0 -10 -16 -10 -36 0 -29 3 -35 16 -30 9 3 18 6 20 6 2 0 4 9 4 20 0 13 10 24 25 30 14 5 25 17 25 25 0 9 8 19 18 22 23 9 82 67 82 81 0 6 9 13 19 17 10 3 21 15 24 25 3 12 14 20 25 20 13 0 22 9 26 24 3 13 15 26 26 29 12 3 20 14 20 25 0 13 9 22 25 26 14 4 25 13 25 21 0 9 11 20 25 25 14 5 25 16 25 25 0 9 11 20 25 25 14 5 25 16 25 25 0 9 11 20 24 24 13 5 26 19 29 30 3 12 12 21 20 21 8 0 17 9 20 21 3 11 15 23 26 26 12 3 24 16 27 29 4 14 14 24 24 24 10 0 21 9 25 19 3 11 15 23 26 26 10 4 19 15 19 25 0 12 9 22 24 26 13 3 26 15 29 26 3 11 15 22 26 25 12 3 21 11 21 18 0 7 11 20 25 29 14 9 25 23 25 30 0 8 11 17 25 20 16 4 25 13 25 26 0 13 7 20 19 20 10 0 21 9 24 21 3 11 15 23 26 26 14 3 21 13 21 29 0 17 6 24 20 24 11 0 27 11 36 25 9 14 23 25 30 25 8 0 14 10 14 25 0 20 5 25 25 25 20 0 25 5 25 25 0 20 5 25 25 25 18 0 25 5 25 19 0 10 9 21 21 24 11 3 23 15 26 26 3 11 14 23 25 27 10 3 23 17 28 30 5 13 14 24 18 24 14 0 82 65 82 77 0 6 9 13 21 16 11 3 23 15 26 26 3 12 12 21 19 21 8 0 19 11 23 24 5 13 19 26 30 29 13 3 21 13 21 25 0 14 8 22 23 24 12 2 26 13 32 25 5 12 17 24 27 26 10 3 18 14 18 26 0 14 6 21 20 21 11 0 24 8 27 18 7 18 72 82 84 82 4 0 9 10 11 23 2 14 11 23 26 25 13 2 26 11 29 20 8 20 56 67 78 76 8 3 15 14 15 25 0 12 11 23 30 30 17 5 30 17 30 25 0 8 9 20 20 26 11 6 20 17 20 25 0 7 10 15 22 17 15 2 24 11 26 25 2 14 12 25 26 29 13 3 28 16 35 30 6 13 15 24 20 24 5 0 11 9 14 19 2 11 15 21 28 23 16 2 25 11 27 26 2 12 7 22 11 22 12 0 81 67 81 79 0 6 11 16 24 21 13 5 27 18 31 29 3 12 12 21 20 21 8 0 16 9 20 19 3 11 15 23 26 26 11 4 24 18 29 31 5 13 15 24 21 24 13 0 69 58 69 71 0 5 12 14 26 19 14 6 28 19 31 30 3 11 13 22 24 25 10 3 21 15 24 26 4 10 13 19 21 19 8 0 20 11 26 25 6 14 17 25 24 25 7 0 19 10 25 23 7 12 20 28 31 35 10 7 18 20 18 28 0 8 9 14 20 14 11 0 24 8 27 17 8 22 120 133 133 133 6 0 10 5 10 11 0 14 125 139 139 139 6 0 11 5 11 10 0 6 34 44 75 84 41 40 75 78 75 84 0 6 9 14 20 17 11 3 25 15 30 26 6 10 17 19 25 19 8 0 17 11 21 25 3 13 14 27 24 30 11 3 22 15 25 25 3 10 15 22 25 25 10 3 22 15 25 26 4 10 10 19 15 19 7 0 145 135 237 232 7 7 18 18 25 25 7 7 29 30 48 53 19 22 40 40 47 40 7 0 13 5 13 12 0 13 77 88 91 88 5 0 9 9 9 20 0 11 5 20 10 20 15 0 140 123 140 138 0 6 5 12 12 12 14 0 228 215 228 228 0 5 11 14 24 20 13 6 27 20 31 31 3 12 11 21 16 21 13 0 79 64 79 77 0 5 11 15 24 21 13 6 27 20 31 31 3 12 11 21 16 21 14 0 63 50 72 73 4 9 15 20 24 24 21 8 73 61 73 74 0 4 10 14 23 20 27 14 37 28 37 52 0 13 -8 17 -34 17 -30 0 -35 -4 -41 -30z"/> <path d="M5030 8986 c0 -7 -1132 -1142 -2515 -2522 -2449 -2443 -2557 -2554 -2505 -2554 9 0 1993 1977 4786 4769 162 161 294 299 294 307 0 9 -11 14 -30 14 -19 0 -30 -5 -30 -14z"/> <path d="M7460 8989 c0 -6 -660 -669 -1467 -1473 -808 -803 -2487 -2478 -3731 -3721 -1991 -1989 -2263 -2264 -2260 -2287 3 -24 44 14 398 364 217 215 415 406 440 426 25 19 80 72 123 116 42 45 96 99 119 121 23 22 58 58 77 79 145 159 911 925 5178 5181 651 649 1183 1186 1183 1192 0 8 -13 13 -30 13 -16 0 -30 -5 -30 -11z"/> <path d="M7580 8990 c0 -5 -1443 -1451 -3206 -3212 -1763 -1762 -3232 -3230 -3265 -3263 -32 -33 -295 -296 -584 -585 -479 -479 -525 -528 -525 -557 0 -18 2 -33 4 -33 5 0 2662 2660 4360 4365 581 583 1554 1558 2161 2167 608 608 1105 1111 1105 1117 0 6 -11 11 -25 11 -14 0 -25 -4 -25 -10z"/> <path d="M7780 8986 c0 -7 -586 -597 -1302 -1311 -5698 -5679 -6480 -6463 -6476 -6491 3 -23 199 169 1833 1797 3360 3348 5983 5974 5990 5997 5 19 3 22 -19 22 -15 0 -26 -6 -26 -14z"/> <path d="M7622 6348 c-740 -739 -2158 -2155 -3152 -3148 -993 -993 -2118 -2114 -2498 -2492 -381 -378 -692 -692 -692 -697 0 -63 -9 -72 5092 5024 1434 1433 2612 2605 2617 2605 6 0 11 11 11 25 0 16 -6 25 -16 25 -9 0 -622 -604 -1362 -1342z"/> <path d="M8719 7330 c-140 -143 -369 -374 -509 -513 -140 -138 -1077 -1073 -2081 -2076 -1005 -1003 -1832 -1827 -1838 -1830 -5 -4 -509 -503 -1118 -1110 -609 -607 -1264 -1259 -1455 -1449 -192 -190 -348 -347 -348 -349 0 -2 19 -3 43 -3 l43 0 1135 1127 c624 620 1841 1831 2704 2693 3244 3235 3676 3665 3690 3668 20 5 21 102 1 102 -7 0 -128 -117 -267 -260z"/> <path d="M385 7401 c8 -39 -18 -65 -58 -57 -29 6 -29 5 -23 -28 8 -42 -11 -60 -54 -51 -29 6 -31 6 -24 -20 9 -38 -19 -66 -59 -58 -29 6 -30 5 -24 -23 8 -44 -8 -66 -46 -62 -29 3 -32 0 -35 -27 -5 -39 -21 -58 -44 -52 -15 4 -18 -1 -18 -35 l0 -39 38 3 c32 3 37 6 38 29 1 38 12 49 45 49 26 0 29 3 29 34 0 36 17 51 58 47 18 -2 22 2 22 27 0 35 14 49 55 54 24 2 31 9 35 33 4 22 14 34 37 45 18 8 33 22 33 30 0 9 7 25 15 38 13 18 19 20 35 10 26 -16 40 -1 33 34 -3 19 -14 30 -36 37 -50 18 -59 15 -52 -18z"/> <path d="M8280 6733 c-382 -382 -2056 -2054 -3720 -3714 -2765 -2760 -3021 -3019 -2992 -3019 35 0 -90 -123 5088 5051 1276 1275 2326 2319 2332 2319 7 0 12 14 12 30 0 18 -5 30 -12 29 -7 0 -326 -313 -708 -696z"/> <path d="M4325 5219 c-76 -20 -91 -26 -180 -71 -104 -53 -255 -186 -286 -253 -5 -11 -18 -33 -29 -50 -11 -16 -22 -37 -26 -45 -3 -8 -11 -28 -18 -45 -45 -103 -51 -138 -51 -295 0 -124 4 -166 19 -210 19 -57 42 -114 57 -140 4 -8 19 -35 31 -59 31 -59 135 -170 211 -224 66 -47 206 -117 235 -117 9 0 39 -7 66 -15 66 -20 239 -20 324 1 193 47 384 176 478 325 116 184 155 368 120 574 -7 44 -18 91 -24 105 -5 14 -18 45 -28 70 -52 130 -179 277 -309 357 -163 101 -412 140 -590 92z"/> <path d="M8611 4423 c-197 -197 -1273 -1269 -2390 -2382 -1117 -1113 -2031 -2027 -2031 -2032 0 -5 33 -9 73 -9 l72 0 375 372 c1615 1599 1982 1960 1988 1953 4 -3 -516 -528 -1155 -1166 -1052 -1051 -1158 -1160 -1128 -1157 30 3 271 240 2295 2261 1243 1241 2267 2257 2275 2257 23 0 20 67 -2 73 -17 4 -17 5 0 6 23 1 25 81 2 81 -8 0 -288 -271 -622 -602 -333 -332 -699 -694 -812 -806 -113 -111 -320 -316 -459 -453 -139 -138 -256 -249 -259 -245 -7 6 2143 2156 2157 2156 6 0 10 11 10 25 0 16 -6 25 -16 25 -8 0 -176 -161 -373 -357z m-1811 -1889 c0 -11 -279 -284 -290 -284 -12 0 269 289 283 289 4 1 7 -2 7 -5z m-390 -390 c0 -12 -220 -224 -231 -224 -12 0 211 229 224 230 4 0 7 -3 7 -6z"/> <path d="M7871 1117 c-602 -601 -1097 -1099 -1099 -1106 -3 -8 4 -11 22 -9 19 2 309 286 1104 1081 593 592 1083 1077 1090 1077 7 0 12 11 12 25 0 17 -5 25 -17 25 -10 0 -503 -485 -1112 -1093z"/> <path d="M7926 1057 l-1049 -1052 49 -3 49 -4 1000 1007 c550 553 1006 1005 1013 1005 8 0 12 17 12 50 0 33 -4 50 -12 50 -7 0 -485 -474 -1062 -1053z"/> <path d="M8010 964 c-845 -845 -961 -965 -933 -962 27 3 165 136 967 936 515 512 940 932 946 932 5 0 10 14 10 30 0 17 -5 30 -13 30 -6 0 -446 -434 -977 -966z"/> </g> </svg> 